<?xml version="1.0" encoding="UTF-8" standalone="no"?>
<svg
   width="1280"
   height="700"
   viewBox="0 0 1280 700"
   version="1.1"
   id="svg39"
   sodipodi:docname="llm_protocol_architecture.svg"
   xml:space="preserve"
   inkscape:version="1.4.2 (f4327f4, 2025-05-13)"
   xmlns:inkscape="http://www.inkscape.org/namespaces/inkscape"
   xmlns:sodipodi="http://sodipodi.sourceforge.net/DTD/sodipodi-0.dtd"
   xmlns="http://www.w3.org/2000/svg"
   xmlns:svg="http://www.w3.org/2000/svg"><sodipodi:namedview
     id="namedview39"
     pagecolor="#ffffff"
     bordercolor="#000000"
     borderopacity="0.25"
     inkscape:showpageshadow="2"
     inkscape:pageopacity="0.0"
     inkscape:pagecheckerboard="0"
     inkscape:deskcolor="#d1d1d1"
     showgrid="true"
     inkscape:zoom="0.81620326"
     inkscape:cx="649.96065"
     inkscape:cy="411.66217"
     inkscape:window-width="1920"
     inkscape:window-height="1010"
     inkscape:window-x="1913"
     inkscape:window-y="-6"
     inkscape:window-maximized="1"
     inkscape:current-layer="svg39"><inkscape:grid
       id="grid56"
       units="px"
       originx="0"
       originy="0"
       spacingx="1"
       spacingy="1"
       empcolor="#0099e5"
       empopacity="0.30196078"
       color="#0099e5"
       opacity="0.14902"
       empspacing="5"
       enabled="true"
       visible="true" /></sodipodi:namedview><defs
     id="defs2"><marker
       style="overflow:visible"
       id="ArrowWide"
       refX="0"
       refY="0"
       orient="auto-start-reverse"
       inkscape:stockid="Wide arrow"
       markerWidth="1"
       markerHeight="1"
       viewBox="0 0 1 1"
       inkscape:isstock="true"
       inkscape:collect="always"
       preserveAspectRatio="xMidYMid"><path
         style="fill:none;stroke:context-stroke;stroke-width:1;stroke-linecap:butt"
         d="M 3,-3 0,0 3,3"
         transform="rotate(180,0.125,0)"
         sodipodi:nodetypes="ccc"
         id="path40" /></marker><marker
       id="arrow"
       viewBox="0 0 10 10"
       refX="9"
       refY="5"
       markerWidth="8"
       markerHeight="8"
       orient="auto"><path
         d="M 0 0 L 10 5 L 0 10 z"
         fill="#334155"
         id="path1" /></marker><marker
       id="arrow-muted"
       viewBox="0 0 10 10"
       refX="9"
       refY="5"
       markerWidth="7"
       markerHeight="7"
       orient="auto"><path
         d="M 0 0 L 10 5 L 0 10 z"
         fill="#94A3B8"
         id="path2" /></marker><style
       id="style2">
      .title { font-family: sans-serif; font-size: 25px; font-weight: 700; fill: #111827; }
      .subtitle { font-family: sans-serif; font-size: 14px; fill: #64748B; }
      .block-title { font-family: sans-serif; font-size: 18px; font-weight: 700; fill: #111827; }
      .agent-title { font-family: sans-serif; font-size: 15px; font-weight: 700; fill: #111827; }
      .text { font-family: sans-serif; font-size: 13.5px; fill: #334155; }
      .small { font-family: sans-serif; font-size: 12px; fill: #64748B; }
      .note { font-family: sans-serif; font-size: 12.5px; font-style: italic; fill: #64748B; }
      .red-note { font-family: sans-serif; font-size: 12.5px; font-weight: 700; fill: #DC2626; }
      .panel { stroke: #334155; stroke-width: 2.2; }
      .subpanel { stroke: #64748B; stroke-width: 1.5; }
      .soft { stroke: #CBD5E1; stroke-width: 1.5; }
      .arrow { stroke: #334155; stroke-width: 2.5; fill: none; marker-end: url(#arrow); }
      .arrow-muted { stroke: #94A3B8; stroke-width: 2; fill: none; marker-end: url(#arrow-muted); }
      .boundary { stroke: #DC2626; stroke-width: 2.3; stroke-dasharray: 8 7; fill: none; }
    </style></defs><rect
     x="0"
     y="0"
     width="1280"
     height="700"
     fill="#FFFFFF"
     id="rect2" /><text
     x="655.59406"
     y="80.985146"
     text-anchor="middle"
     class="title"
     id="text2"
     style="font-size:32px"><tspan
       style="font-style:normal;font-variant:normal;font-weight:bold;font-stretch:normal;font-size:32px;font-family:Sans;-inkscape-font-specification:'Sans Bold'"
       id="tspan50">PrefBench evaluation loop</tspan></text><text
     x="655.59406"
     y="104.98515"
     text-anchor="middle"
     class="subtitle"
     id="text3"
     style="font-size:18.6667px"><tspan
       style="font-style:normal;font-variant:normal;font-weight:normal;font-stretch:normal;font-size:18.6667px;font-family:Sans;-inkscape-font-specification:Sans"
       id="tspan49">LLM sellers receive only observable state summaries; hidden buyer variables remain inside the simulator.</tspan></text><!-- Main simulator block --><rect
     x="57.969578"
     y="164.99513"
     width="344.06085"
     height="368.71991"
     rx="24.004246"
     ry="22.690456"
     fill="#f8fafc"
     class="panel"
     id="rect3" /><text
     x="229.64114"
     y="195.65268"
     text-anchor="middle"
     class="block-title"
     id="text4"
     style="font-style:normal;font-variant:normal;font-weight:bold;font-stretch:normal;font-size:24px;font-family:Sans;-inkscape-font-specification:'Sans Bold'">Buyer simulator</text><rect
     x="73.534744"
     y="213.31792"
     width="314.74277"
     height="115.95071"
     rx="20.526703"
     ry="21.29707"
     fill="#eaf4ec"
     class="subpanel"
     id="rect4" /><text
     x="227.52412"
     y="237.89818"
     text-anchor="middle"
     class="agent-title"
     id="text5"
     style="font-size:18.6667px"><tspan
       style="font-style:normal;font-variant:normal;font-weight:bold;font-stretch:normal;font-family:Sans;-inkscape-font-specification:'Sans Bold'"
       id="tspan57">Episode inputs</tspan></text><text
     x="120.02789"
     y="266.56927"
     class="text"
     id="text6"
     style="font-size:17.3333px"><tspan
       sodipodi:role="line"
       id="tspan55"
       x="120.02789"
       y="266.56927"
       style="font-style:normal;font-variant:normal;font-weight:normal;font-stretch:normal;font-size:17.3333px;font-family:Sans;-inkscape-font-specification:Sans">shared persona profile +</tspan><tspan
       sodipodi:role="line"
       x="120.02789"
       y="288.2359"
       style="font-style:normal;font-variant:normal;font-weight:normal;font-stretch:normal;font-size:17.3333px;font-family:Sans;-inkscape-font-specification:Sans"
       id="tspan75">fixed bundle,</tspan><tspan
       sodipodi:role="line"
       id="tspan56"
       x="120.02789"
       y="309.90253"
       style="font-style:normal;font-variant:normal;font-weight:normal;font-stretch:normal;font-size:17.3333px;font-family:Sans;-inkscape-font-specification:Sans">shared test split and seed</tspan></text><text
     x="147.12376"
     y="247.74257"
     class="text"
     id="text7" /><rect
     x="77.195679"
     y="402.7153"
     width="311.43729"
     height="110.62173"
     rx="20.311129"
     ry="17.778492"
     fill="#f3e8e8"
     class="subpanel"
     id="rect7" /><text
     x="233.27315"
     y="428.00769"
     text-anchor="middle"
     class="agent-title"
     id="text8"
     style="font-size:18.6667px"><tspan
       style="font-style:normal;font-variant:normal;font-weight:bold;font-stretch:normal;font-size:18.6667px;font-family:Sans;-inkscape-font-specification:'Sans Bold'"
       id="tspan60">Hidden buyer variables</tspan></text><text
     x="112.21655"
     y="456.2764"
     class="text"
     id="text9"
     style="font-size:17.3333px"><tspan
       sodipodi:role="line"
       id="tspan61"
       x="112.21655"
       y="456.2764"
       style="font-style:normal;font-variant:normal;font-weight:normal;font-stretch:normal;font-size:17.3333px;font-family:Sans;-inkscape-font-specification:Sans">WTP, feature preferences</tspan><tspan
       sodipodi:role="line"
       id="tspan62"
       x="112.21655"
       y="477.94302"
       style="font-style:normal;font-variant:normal;font-weight:normal;font-stretch:normal;font-size:17.3333px;font-family:Sans;-inkscape-font-specification:Sans">price sensitivity, patience</tspan><tspan
       sodipodi:role="line"
       x="112.21655"
       y="499.60965"
       id="tspan63"
       style="font-style:normal;font-variant:normal;font-weight:normal;font-stretch:normal;font-size:17.3333px;font-family:Sans;-inkscape-font-specification:Sans">counter strength, walkaway</tspan></text><text
     x="122"
     y="437"
     class="text"
     id="text10" /><text
     x="122"
     y="460"
     class="text"
     id="text11" /><!-- Observation block --><rect
     x="508.95114"
     y="161.95609"
     width="265.56305"
     height="196.08781"
     rx="22.130255"
     ry="24.010752"
     fill="#eef3f8"
     class="panel"
     id="rect11" /><text
     x="636.53467"
     y="194.20297"
     text-anchor="middle"
     class="block-title"
     id="text12"
     style="font-size:24px"><tspan
       sodipodi:role="line"
       id="tspan64"
       x="636.53467"
       y="194.20297"><tspan
         style="font-style:normal;font-variant:normal;font-weight:bold;font-stretch:normal;font-size:24px;font-family:Sans;-inkscape-font-specification:'Sans Bold'"
         id="tspan47">Observable state</tspan></tspan><tspan
       sodipodi:role="line"
       id="tspan65"
       x="636.53467"
       y="224.20297"><tspan
         style="font-style:normal;font-variant:normal;font-weight:bold;font-stretch:normal;font-size:24px;font-family:Sans;-inkscape-font-specification:'Sans Bold'"
         id="tspan66">summary</tspan></tspan></text><text
     x="521.93561"
     y="260.69586"
     class="text"
     id="text13"
     style="font-size:17.3333px"><tspan
       sodipodi:role="line"
       id="tspan40"
       x="521.93561"
       y="260.69586"
       style="font-style:normal;font-variant:normal;font-weight:normal;font-stretch:normal;font-size:17.3333px;font-family:Sans;-inkscape-font-specification:Sans">public buyer descriptors</tspan><tspan
       sodipodi:role="line"
       id="tspan41"
       x="521.93561"
       y="282.36249"
       style="font-style:normal;font-variant:normal;font-weight:normal;font-stretch:normal;font-size:17.3333px;font-family:Sans;-inkscape-font-specification:Sans">bundle MSRP and cost proxy</tspan><tspan
       sodipodi:role="line"
       x="521.93561"
       y="304.02911"
       id="tspan42"
       style="font-style:normal;font-variant:normal;font-weight:normal;font-stretch:normal;font-size:17.3333px;font-family:Sans;-inkscape-font-specification:Sans">round, last offer, counter</tspan></text><text
     x="528"
     y="260"
     class="text"
     id="text14" /><text
     x="528"
     y="284"
     class="text"
     id="text15" /><text
     x="532.20105"
     y="350.79184"
     class="note"
     id="text16"
     style="font-size:14.6667px"><tspan
       style="font-style:italic;font-variant:normal;font-weight:normal;font-stretch:normal;font-size:14.6667px;font-family:Sans;-inkscape-font-specification:'Sans Italic'"
       id="tspan48">rendered into the LLM prompt</tspan></text><!-- LLM block --><rect
     x="896.71906"
     y="167.44179"
     width="365.89337"
     height="185.65855"
     rx="25.527445"
     ry="11.425141"
     fill="#f8fafc"
     class="panel"
     id="rect16" /><rect
     x="1026.5964"
     y="211.62643"
     width="108.57271"
     height="132.47227"
     rx="19.740492"
     ry="17.962343"
     fill="#eef0f6"
     class="subpanel"
     id="rect17-9"
     style="stroke:#64748b;stroke-width:1.58978" /><text
     x="1081.8549"
     y="196.59334"
     text-anchor="middle"
     class="block-title"
     id="text17"
     style="font-size:24px"><tspan
       style="font-style:normal;font-variant:normal;font-weight:bold;font-stretch:normal;font-size:24px;font-family:Sans;-inkscape-font-specification:'Sans Bold'"
       id="tspan51">LLM seller agents</tspan></text><rect
     x="911.51764"
     y="211.16585"
     width="108.56758"
     height="133.3335"
     rx="19.739561"
     ry="18.079119"
     fill="#eef0f6"
     class="subpanel"
     id="rect17" /><text
     x="963.53052"
     y="330.25342"
     text-anchor="middle"
     class="small"
     id="text19"
     style="font-size:16px"><tspan
       style="font-style:normal;font-variant:normal;font-weight:normal;font-stretch:normal;font-size:16px;font-family:Sans;-inkscape-font-specification:Sans"
       id="tspan52">DeepSeek</tspan></text><text
     x="956"
     y="296"
     text-anchor="middle"
     class="small"
     id="text20" /><text
     x="1076.418"
     y="332.06039"
     text-anchor="middle"
     class="small"
     id="text22"
     style="font-size:16px"><tspan
       style="font-style:normal;font-variant:normal;font-weight:normal;font-stretch:normal;font-size:16px;font-family:Sans;-inkscape-font-specification:Sans"
       id="tspan67">Kimi</tspan></text><text
     x="1050"
     y="296"
     text-anchor="middle"
     class="small"
     id="text23" /><text
     x="1144"
     y="296"
     text-anchor="middle"
     class="small"
     id="text26" /><rect
     x="928.75635"
     y="409.0275"
     width="280.68564"
     height="78.99025"
     rx="20.048973"
     ry="15.79805"
     fill="#eaf4ec"
     class="subpanel"
     id="rect26" /><text
     x="1072.4813"
     y="437.78079"
     text-anchor="middle"
     class="agent-title"
     id="text27"
     style="font-size:24px"><tspan
       style="font-style:normal;font-variant:normal;font-weight:bold;font-stretch:normal;font-size:24px;font-family:Sans;-inkscape-font-specification:'Sans Bold'"
       id="tspan68">Structured action</tspan></text><text
     x="974.76489"
     y="471.28967"
     text-anchor="middle"
     class="text"
     id="text28"
     style="font-size:17.3333px"><tspan
       style="font-style:normal;font-variant:normal;font-weight:normal;font-stretch:normal;font-family:Sans;-inkscape-font-specification:Sans"
       id="tspan69">offer</tspan></text><text
     x="1063.4282"
     y="471.28967"
     text-anchor="middle"
     class="text"
     id="text29"
     style="font-size:17.3333px"><tspan
       style="font-style:normal;font-variant:normal;font-weight:normal;font-stretch:normal;font-family:Sans;-inkscape-font-specification:Sans"
       id="tspan70">accept</tspan></text><text
     x="1157.2896"
     y="469.99017"
     text-anchor="middle"
     class="text"
     id="text30"
     style="font-size:17.3333px"><tspan
       style="font-style:normal;font-variant:normal;font-weight:normal;font-stretch:normal;font-family:Sans;-inkscape-font-specification:Sans"
       id="tspan71">walkaway</tspan></text><!-- Main flow arrows --><path
     d="m 403.2995,242 c 38.77516,0 62.47108,0 101.24624,0"
     class="arrow"
     id="path30"
     style="stroke-width:4.9493;stroke-dasharray:none;marker-end:url(#ArrowWide)" /><text
     x="453.49307"
     y="273.2453"
     text-anchor="middle"
     class="note"
     id="text31"
     style="font-size:16px"><tspan
       sodipodi:role="line"
       id="tspan43"
       x="453.49307"
       y="273.2453"
       style="font-style:italic;font-variant:normal;font-weight:normal;font-stretch:normal;font-size:16px;font-family:Sans;-inkscape-font-specification:'Sans Italic'">observable</tspan><tspan
       sodipodi:role="line"
       id="tspan44"
       x="453.49307"
       y="293.2453"
       style="font-style:italic;font-variant:normal;font-weight:normal;font-stretch:normal;font-size:16px;font-family:Sans;-inkscape-font-specification:'Sans Italic'">fields only</tspan></text><path
     d="m 773.60396,242 c 45.74629,0 73.70235,0 119.44864,0"
     class="arrow"
     id="path31"
     style="stroke-width:5;stroke-dasharray:none;marker-end:url(#ArrowWide)" /><text
     x="833.91431"
     y="273.00958"
     text-anchor="middle"
     class="note"
     id="text32"
     style="font-size:16px"><tspan
       sodipodi:role="line"
       id="tspan45"
       x="833.91431"
       y="273.00958"
       style="font-style:italic;font-variant:normal;font-weight:normal;font-stretch:normal;font-size:16px;font-family:Sans;-inkscape-font-specification:'Sans Italic'">fresh prompt</tspan><tspan
       sodipodi:role="line"
       id="tspan46"
       x="833.91431"
       y="293.00958"
       style="font-style:italic;font-variant:normal;font-weight:normal;font-stretch:normal;font-size:16px;font-family:Sans;-inkscape-font-specification:'Sans Italic'">per decision</tspan></text><path
     d="m 1054.7649,353.41831 v 53.75445"
     class="arrow"
     id="path32" /><text
     x="1075.0322"
     y="383.75"
     class="note"
     id="text33"
     style="font-size:16px"><tspan
       style="font-style:italic;font-variant:normal;font-weight:normal;font-stretch:normal;font-size:16px;font-family:Sans;-inkscape-font-specification:'Sans Italic'"
       id="tspan54">JSON output</tspan></text><text
     x="659.92572"
     y="473.2822"
     text-anchor="middle"
     class="note"
     id="text34"
     style="font-size:16px"><tspan
       style="font-style:italic;font-variant:normal;font-weight:normal;font-stretch:normal;font-size:16px;font-family:Sans;-inkscape-font-specification:'Sans Italic'"
       id="tspan72">action executed by the simulator</tspan></text><!-- Metrics band --><rect
     x="406.29794"
     y="555.29791"
     width="594.75562"
     height="99.125938"
     rx="25.416906"
     ry="25.416906"
     fill="#f7f2e8"
     class="panel"
     id="rect34" /><text
     x="693.71289"
     y="586.86633"
     text-anchor="middle"
     class="block-title"
     id="text35"
     style="font-size:24px"><tspan
       style="font-style:normal;font-variant:normal;font-weight:bold;font-stretch:normal;font-size:24px;font-family:Sans;-inkscape-font-specification:'Sans Bold'"
       id="tspan73">Episode outcome and metrics</tspan></text><text
     x="702.37622"
     y="629.59406"
     text-anchor="middle"
     class="text"
     id="text36"
     style="font-size:17.3333px"><tspan
       style="font-style:normal;font-variant:normal;font-weight:normal;font-stretch:normal;font-size:17.3333px;font-family:Sans;-inkscape-font-specification:Sans"
       id="tspan74">buyer response, deal/no-deal, seller profit, rounds, invalid rate</tspan></text><text
     x="308.0694"
     y="575.20288"
     text-anchor="middle"
     class="note"
     id="text37"
     style="font-size:16px"><tspan
       style="font-style:italic;font-variant:normal;font-weight:normal;font-stretch:normal;font-size:16px;font-family:Sans;-inkscape-font-specification:'Sans Italic'"
       id="tspan76">aggregate outcome</tspan></text><!-- Hidden boundary --><path
     d="M 98.633413,366.51723 H 374.63341"
     class="boundary"
     id="path37" /><text
     x="236.63341"
     y="360.51721"
     text-anchor="middle"
     class="red-note"
     id="text38"
     style="font-size:16px"><tspan
       style="font-style:normal;font-variant:normal;font-weight:bold;font-stretch:normal;font-size:16px;font-family:Sans;-inkscape-font-specification:'Sans Bold'"
       id="tspan58">hidden-information boundary</tspan></text><text
     x="240.00267"
     y="384.30109"
     text-anchor="middle"
     class="red-note"
     id="text39"
     style="font-size:16px"><tspan
       style="font-style:normal;font-variant:normal;font-weight:bold;font-stretch:normal;font-family:Sans;-inkscape-font-specification:'Sans Bold'"
       id="tspan59">latent buyer variables stay private</tspan></text><rect
     x="1140.5093"
     y="210.82339"
     width="108.56758"
     height="133.3335"
     rx="19.739561"
     ry="18.079119"
     fill="#eef0f6"
     class="subpanel"
     id="rect17-8"
     style="stroke:#64748b;stroke-width:1.59491" /><text
     x="1193.858"
     y="332.52438"
     text-anchor="middle"
     class="small"
     id="text25"
     style="font-size:16px"><tspan
       style="font-style:normal;font-variant:normal;font-weight:normal;font-stretch:normal;font-size:16px;font-family:Sans;-inkscape-font-specification:Sans"
       id="tspan53">Qwen</tspan></text><g
     id="g72"
     transform="matrix(0.08384158,0,0,0.08384158,1038.3069,225.33285)"><path
       d="M 0,0 M 146.28571,0 H 877.71429 Q 1024,0 1024,146.28571 V 877.71429 Q 1024,1024 877.71429,1024 H 146.28571 Q 0,1024 0,877.71429 V 146.28571 Q 0,0 146.28571,0 Z"
       fill="#ffffff"
       p-id="8033"
       id="path1-8" /><path
       d="M 595.67543,798.90286 V 463.36 A 106.64229,106.64229 0 0 1 702.28114,569.92914 V 798.86629 Z M 217.23429,791.04 V 250.368 H 325.41257 V 791.04 Z M 325.99771,569.96571 V 463.36 H 595.712 v 31.37829 a 75.300571,75.300571 0 0 1 -75.33714,75.19085 H 325.99771 Z M 459.264,463.39657 551.78971,247.04 H 670.90286 L 599.552,413.87886 a 81.517714,81.517714 0 0 1 -74.97143,49.51771 z"
       fill="#000000"
       p-id="8034"
       id="path2-2" /><path
       d="m 843.30057,287.81714 c 0,34.63315 -28.08686,62.72 -62.72,62.72 q -9.14286,0 -58.03886,6.25372 9.43543,-10.97143 17.26172,-21.28457 a 62.72,62.72 0 1 1 103.424,-47.65258 z"
       fill="#007aff"
       p-id="8035"
       id="path3" /></g><path
     d="m 1011.4427,231.01121 c -0.9834,-0.49178 -1.408,0.44558 -1.9824,0.92192 -0.1958,0.15372 -0.3629,0.35352 -0.5301,0.53788 -1.4368,1.56729 -3.1156,2.59695 -5.3111,2.474 -3.2078,-0.18437 -5.94694,0.84518 -8.36721,3.34995 -0.51474,-3.08874 -2.22434,-4.93269 -4.82701,-6.11593 -1.36379,-0.61462 -2.7391,-1.22935 -3.6938,-2.56631 -0.66451,-0.95268 -0.84521,-2.01299 -1.17937,-3.05785 -0.21129,-0.63005 -0.42264,-1.27543 -1.13323,-1.38305 -0.77413,-0.12289 -1.07573,0.53786 -1.37924,1.09107 -1.2101,2.25888 -1.68073,4.74832 -1.63274,7.26841 0.10383,5.67037 2.45107,10.18812 7.111,13.3998 0.53016,0.36872 0.66655,0.73756 0.49941,1.27532 -0.31694,1.10639 -0.69732,2.18213 -1.02953,3.28854 -0.21147,0.7069 -0.52825,0.8605 -1.27165,0.5532 -2.55667,-1.09108 -4.76565,-2.70459 -6.71913,-4.65604 -3.31337,-3.27321 -6.30991,-6.88437 -10.04593,-9.71178 a 44.179276,44.179276 0 0 0 -2.66418,-1.85939 c -3.81287,-3.7802 0.49938,-6.88425 1.49826,-7.25309 1.04297,-0.38417 0.36302,-1.70569 -3.01187,-1.69036 -3.3749,0.0153 -6.46172,1.16793 -10.39564,2.70456 -0.57613,0.23046 -1.18134,0.3995 -1.79976,0.53788 -3.57279,-0.69158 -7.27995,-0.84518 -11.15434,-0.3996 -7.29337,0.82986 -13.11934,4.34884 -17.40273,10.35715 -5.14401,7.22233 -6.35613,15.42823 -4.87128,23.9874 1.5559,9.02031 6.06784,16.48854 12.99831,22.32782 7.18776,6.05441 15.46468,9.0203 24.90752,8.45178 5.73558,-0.3382 12.12046,-1.12184 19.32355,-7.34539 1.8171,0.92204 3.72448,1.29086 6.88627,1.56741 2.43754,0.23045 4.78288,-0.12289 6.59808,-0.50711 2.84475,-0.61462 2.64686,-3.30385 1.61923,-3.79553 -8.33836,-3.96466 -6.50782,-2.35117 -8.17122,-3.65726 4.23729,-5.11715 10.62215,-10.43411 13.11934,-27.66008 0.19778,-1.36761 0.0307,-2.22812 0,-3.33451 -0.0153,-0.67615 0.13436,-0.93747 0.89315,-1.01421 2.08794,-0.2459 4.11634,-0.82986 5.97764,-1.87473 5.4014,-3.01187 7.5815,-7.96 8.0963,-13.89158 0.076,-0.90659 -0.016,-1.84395 -0.9546,-2.32029 m -47.07782,53.38383 c -8.07903,-6.48477 -11.99951,-8.62071 -13.61872,-8.52853 -1.5136,0.0922 -1.24086,1.8594 -0.90861,3.01187 0.3477,1.13717 0.8029,1.92083 1.43866,2.91971 0.43807,0.66081 0.74157,1.64427 -0.43978,2.38183 -2.60277,1.64427 -7.12633,-0.5532 -7.33755,-0.66072 -5.26695,-3.16558 -9.6715,-7.34538 -12.77366,-13.06172 -2.99643,-5.50132 -4.73479,-11.40213 -5.02296,-17.70242 -0.0769,-1.52132 0.36302,-2.05919 1.84406,-2.33585 a 17.863746,17.863746 0 0 1 5.91804,-0.1536 c 8.24818,1.22945 15.27071,4.99422 21.15609,10.95655 3.35956,3.39593 5.9008,7.45279 8.52079,11.41747 2.78334,4.21034 5.77988,8.2211 9.59275,11.50952 1.34647,1.15248 2.4202,2.02843 3.44974,2.67381 -3.10216,0.3535 -8.27873,0.43024 -11.81885,-2.42792 m 3.87429,-25.43187 c 0,-0.67614 0.53026,-1.21401 1.19668,-1.21401 q 0.22664,0.004 0.40719,0.0769 a 1.204393,1.204393 0 0 1 0.77225,1.13715 1.1985758,1.1985758 0 0 1 -1.19478,1.21402 1.1851513,1.1851513 0 0 1 -1.18134,-1.21402 m 12.03027,6.30031 c -0.77032,0.32274 -1.54245,0.5994 -2.28583,0.63004 -1.14868,0.0616 -2.40487,-0.41481 -3.08482,-0.99877 -1.06031,-0.9067 -1.81722,-1.41382 -2.13414,-2.99655 -0.13637,-0.67614 -0.0616,-1.72101 0.0596,-2.32029 0.27274,-1.29088 -0.0307,-2.12061 -0.92203,-2.87361 -0.72604,-0.61473 -1.65008,-0.78377 -2.66418,-0.78377 -0.37845,0 -0.72603,-0.16892 -0.98345,-0.3073 a 1.0083967,1.0083967 0 0 1 -0.43797,-1.4137 c 0.10565,-0.21513 0.62044,-0.73767 0.74147,-0.82985 1.37713,-0.7991 2.96567,-0.53776 4.43319,0.0616 1.36191,0.56853 2.38954,1.61351 3.87439,3.08874 1.5136,1.78254 1.78635,2.27431 2.64685,3.61117 0.68196,1.04486 1.30239,2.12061 1.72504,3.34983 0.2592,0.76843 -0.0749,1.39837 -0.96813,1.78254"
     fill="#4d6bfe"
     p-id="5785"
     id="path1-4"
     style="stroke-width:0.0810157" /><g
     id="g73"
     transform="matrix(0.08641978,0,0,0.08641978,1152.3594,224.87931)"><path
       d="M 0,512 A 512,512 0 1 0 1024,512 512,512 0 1 0 0,512 Z"
       fill="#ffffff"
       p-id="9102"
       id="path1-5" /><path
       d="m 311.2704,329.8816 h -86.016 a 16.5632,16.5632 0 0 0 -14.336,8.2688 l -47.7952,82.7648 a 16.5888,16.5888 0 0 0 0,16.5632 l 196.1472,339.4048 h 95.36 l 141.696,-119.04 z"
       fill="#615ced"
       p-id="9103"
       id="path2-5" /><path
       d="m 253.952,594.7904 -43.0336,74.496 a 16.5376,16.5376 0 0 0 0,16.5632 l 47.7952,82.7648 a 16.4352,16.4352 0 0 0 14.336,8.2944 H 454.6304 L 253.9264,594.7904 Z m 516.1728,-165.6064 43.008,-74.4704 a 16.5632,16.5632 0 0 0 0,-16.5632 l -47.7952,-82.7648 a 16.5888,16.5888 0 0 0 -14.336,-8.2944 l -392.0128,0.1792 -47.6928,82.5856 32.256,182.2208 z"
       fill="#615ced"
       p-id="9104"
       id="path3-1" /><path
       d="m 569.344,247.1168 -43.008,-74.496 A 16.5376,16.5376 0 0 0 512,164.3264 h -95.5904 a 16.4352,16.4352 0 0 0 -14.336,8.2688 l -43.4688,75.2896 -47.3344,81.9712 z m -114.688,529.8176 42.9824,74.496 a 16.5632,16.5632 0 0 0 14.336,8.2688 h 95.5904 a 16.5888,16.5888 0 0 0 14.336,-8.2688 L 817.7408,511.8464 770.0736,429.2352 596.1472,366.08 454.6304,776.9344 Z"
       fill="#615ced"
       p-id="9105"
       id="path4" /><path
       d="m 712.704,694.1184 h 86.0416 c 5.9136,0 11.392,-3.1744 14.336,-8.2944 l 47.7952,-82.7648 a 16.4352,16.4352 0 0 0 0,-16.5632 L 817.408,511.2064 770.0992,429.2352 712.7296,694.1184 Z"
       fill="#615ced"
       p-id="9106"
       id="path5" /><path
       d="m 465.3312,760.0128 -190.72,0.768 47.2576,-82.688 95.488,-0.4096 -192.3328,-329.9328 95.5392,-0.1792 192.128,329.5488 z"
       fill="#ffffff"
       p-id="9107"
       id="path6" /><path
       d="m 320.5376,347.5712 94.6944,-165.5296 47.9744,82.2784 -47.36,82.8672 381.8752,-1.5616 -47.616,82.816 -381.44,1.5872 -48.128,-82.432 z"
       fill="#ffffff"
       p-id="9108"
       id="path7" /><path
       d="m 750.1312,428.416 96,164.7616 -95.232,0.4352 -48.0768,-82.4832 -189.568,331.52 -47.9232,-82.6368 189.3376,-331.1616 95.488,-0.4352 z"
       fill="#ffffff"
       p-id="9109"
       id="path8" /><path
       d="M 512.6912,677.12 654.6944,428.8512 368.6656,430.0288 512.6912,677.1456 Z"
       fill="#605bec"
       p-id="9110"
       id="path9" /><path
       d="m 512.6912,677.12 -192.128,-329.5488 9.472,-16.5632 192.1024,329.5744 -9.4464,16.5632 z"
       fill="#605bec"
       p-id="9111"
       id="path10" /><path
       d="m 368.64,430.0288 381.4912,-1.5872 9.6,16.4864 -381.4656,1.5872 z"
       fill="#605bec"
       p-id="9112"
       id="path11" /><path
       d="m 654.6944,428.8 -189.3376,331.1616 -19.072,0.0768 189.3632,-331.136 z"
       fill="#605bec"
       p-id="9113"
       id="path12" /></g><path
     style="fill:none;stroke:#64748b;stroke-width:4.98631;stroke-linejoin:round;stroke-miterlimit:8;stroke-dasharray:none;stroke-opacity:1;marker-end:url(#ArrowWide);paint-order:stroke fill markers"
     d="m 216.96016,534.88047 0.31078,78.11746 183.04406,-0.19676"
     id="path75" /><path
     style="fill:none;stroke:#64748b;stroke-width:4.98246;stroke-linejoin:round;stroke-miterlimit:8;stroke-dasharray:none;stroke-opacity:1;marker-end:url(#ArrowWide);paint-order:stroke fill markers"
     d="m 927.73604,449.33598 -519.91085,0.30693"
     id="path76" /></svg>
